<svg width="122" height="34" viewBox="0 0 122 34" fill="none" xmlns="http://www.w3.org/2000/svg">
<path d="M1.19629 32.4821V1.09277H8.37276V18.6999L12.7982 12.6285C13.6953 11.4142 14.7718 10.4428 16.0875 9.83563C17.4032 9.22849 18.8384 8.80349 20.2737 8.80349H25.1777L15.1904 20.8856L25.1777 32.4821H15.7286L8.37276 23.0106V32.4821H1.19629Z" fill="white"/>
<path d="M29.0649 12.0214C30.0217 10.9285 31.158 10.0785 32.4737 9.47139C33.7894 8.86425 35.1649 8.56068 36.6002 8.62139C39.5904 8.62139 41.8629 9.71425 43.4178 11.9607V8.86425H50.5943V32.5428H43.4178V29.1428C41.6835 31.5714 39.3512 32.7857 36.4806 32.9071C33.5502 32.9071 31.0982 31.7535 29.0649 29.5071C26.9717 27.2607 25.9551 24.3464 25.9551 20.825C26.0149 17.1821 27.0315 14.2678 29.0649 12.0214ZM41.9227 16.3321C41.4443 15.8464 40.9061 15.4821 40.308 15.2393C39.71 14.9964 39.0521 14.875 38.3943 14.875C37.7364 14.875 37.0786 14.9964 36.4806 15.3C35.8825 15.5428 35.3443 15.9678 34.8659 16.4535C33.8492 17.4857 33.311 18.9428 33.311 20.7643C33.311 22.6464 33.8492 24.0428 34.8659 25.075C35.3443 25.5607 35.8825 25.925 36.4806 26.1678C37.0786 26.4107 37.7364 26.5321 38.3943 26.5321C39.0521 26.5321 39.71 26.4107 40.308 26.1071C40.9061 25.8643 41.4443 25.4393 41.9227 24.9535C42.9394 23.9214 43.4776 22.4643 43.4776 20.6428C43.4776 18.8214 42.9394 17.3643 41.9227 16.3321Z" fill="white"/>
<path d="M68.4753 26.3499V32.4821H64.8273C62.1959 32.4821 60.1626 31.8749 58.7273 30.7214C57.292 29.5678 56.5743 27.5035 56.5743 24.6499V14.8142H54.4214V8.8035H56.5743V3.03564H58.0096C59.5047 3.03564 60.94 3.64279 62.0165 4.73564C63.093 5.8285 63.691 7.28564 63.691 8.8035H68.3557V14.8142H63.691V24.6499C63.691 25.7428 64.4086 26.2892 65.8439 26.2892L68.4753 26.3499Z" fill="white"/>
<path d="M74.8744 11.8391C77.0274 9.6534 79.8382 8.56055 83.247 8.56055C86.1176 8.56055 88.5097 9.28912 90.4833 10.6855C92.4568 12.1427 93.7725 14.1463 94.4303 16.8177H86.7156C86.0578 15.4213 84.9813 14.6927 83.4264 14.6927C81.8715 14.6927 80.795 15.2391 80.0176 16.332C79.2999 17.4248 78.8813 18.882 78.8813 20.6427C78.8813 22.4034 79.2401 23.8605 80.0176 24.9534C80.7352 26.0463 81.8117 26.5927 83.247 26.5927C83.9646 26.6534 84.6823 26.4713 85.3401 26.107C85.9382 25.682 86.4166 25.1355 86.6558 24.4677H94.3705C93.7725 26.8963 92.397 29.082 90.4235 30.5391C88.3901 32.057 85.998 32.7855 83.247 32.7855C79.8382 32.7855 77.0274 31.6927 74.8744 29.4463C72.7215 27.2605 71.645 24.2855 71.645 20.6427C71.645 16.9998 72.7215 14.0248 74.8744 11.8391Z" fill="white"/>
<path d="M104.777 12.3249C106.272 9.83563 108.604 8.56063 111.834 8.56063C114.525 8.56063 116.678 9.47134 118.352 11.2928C120.027 13.1142 120.864 15.5428 120.864 18.6999V32.5428H113.747V19.6713C113.747 18.1535 113.329 16.9392 112.551 16.1499C111.774 15.2999 110.638 14.8749 109.262 14.8749C107.887 14.8749 106.75 15.2999 105.973 16.1499C105.195 16.9999 104.777 18.1535 104.777 19.6713V32.5428H97.6602V1.09277H100.172C100.77 1.09277 101.368 1.2142 101.966 1.45706C102.504 1.69992 103.043 2.0642 103.461 2.4892C103.88 2.9142 104.239 3.46063 104.478 4.00706C104.717 4.55349 104.837 5.16063 104.837 5.82849L104.777 12.3249Z" fill="white"/>
</svg>
