<svg version="1.1" id="Layer_1" xmlns="http://www.w3.org/2000/svg" xmlns:xlink="http://www.w3.org/1999/xlink" x="0px" y="0px"
	 width="100%" viewBox="0 0 793 171" enable-background="new 0 0 793 171" xml:space="preserve">
<path fill="#000000" opacity="1.000000" stroke="none" 
	d="
M521.000000,172.000000 
	C347.378235,172.000000 174.256470,172.000000 1.067348,172.000000 
	C1.067348,115.059746 1.067348,58.119389 1.067348,1.089517 
	C265.333313,1.089517 529.666626,1.089517 793.964600,1.089517 
	C793.964600,58.076828 793.964600,115.038429 793.964600,172.000000 
	C703.119446,172.000000 612.309692,172.000000 521.000000,172.000000 
M331.971344,52.352787 
	C332.020203,51.914986 332.069092,51.477180 332.707855,50.689144 
	C332.749695,49.792629 332.791534,48.896111 332.971375,47.352791 
	C333.020233,46.914986 333.069092,46.477184 333.707825,45.689144 
	C333.749664,44.792625 333.791504,43.896111 333.971375,42.352791 
	C334.020264,41.914989 334.069122,41.477188 334.707855,40.689144 
	C334.749695,39.792629 334.791534,38.896111 334.966736,37.112404 
	C334.588928,33.741657 334.211151,30.370907 333.946136,26.284929 
	C332.297180,23.912172 330.648224,21.539415 328.344757,18.822367 
	C323.026581,14.577117 316.709686,15.251551 310.486359,14.931345 
	C297.178589,14.246631 292.718811,21.143631 290.952850,31.567059 
	C288.497955,46.056999 285.636902,60.477695 283.112640,74.956436 
	C280.950287,87.359489 279.328217,99.864166 276.881073,112.207695 
	C275.028534,121.551880 272.252655,130.712997 269.277924,140.242004 
	C268.809540,140.713791 268.359222,141.205276 267.869904,141.654282 
	C263.236053,145.906586 257.924927,147.892365 251.750183,145.808258 
	C246.835571,144.149506 243.662994,138.675781 244.095245,131.704956 
	C244.551270,124.351196 245.541046,117.009384 246.691803,109.724617 
	C248.630585,97.451302 251.002060,85.246361 252.943283,72.973404 
	C253.784302,67.656067 256.257202,64.605537 261.644226,65.151512 
	C266.636780,65.657509 268.032104,62.943974 268.791687,59.208561 
	C269.172638,57.335125 268.858093,55.320255 268.858093,53.575150 
	C266.735077,53.012615 265.040833,52.454670 263.303253,52.125191 
	C259.242920,51.355259 257.928436,48.465641 258.097229,44.905495 
	C258.227112,42.165630 259.201233,39.476830 259.609894,36.736980 
	C260.661682,29.685503 261.607849,22.618273 262.674225,15.000014 
	C259.419037,15.000014 257.451019,14.970248 255.484146,15.004726 
	C239.826553,15.279208 223.801849,23.961548 222.932861,44.643940 
	C222.729370,49.487312 219.660248,52.122620 214.877533,53.086231 
	C213.389694,53.386002 211.402588,54.490150 210.901077,55.733212 
	C209.788803,58.490086 209.472534,61.568115 208.834320,64.503159 
	C216.247452,66.025291 218.067825,68.381889 217.152390,73.833061 
	C214.686432,88.517113 212.737320,103.299095 209.847427,117.896576 
	C208.140717,126.517593 208.931122,136.031113 199.639694,142.208313 
	C190.571167,148.237305 181.353790,153.330429 170.500641,153.877991 
	C152.159332,154.803329 139.075287,140.364426 141.009430,122.129044 
	C141.492050,117.578957 145.015350,115.478928 149.947647,115.996521 
	C156.049576,116.636864 162.270828,117.387253 168.337860,116.874702 
	C185.253159,115.445679 200.408737,103.002335 204.583832,86.584778 
	C208.614426,70.735458 206.291565,61.007034 193.255630,53.187622 
	C183.197693,47.154537 171.773849,46.971584 160.579269,48.376579 
	C150.617386,49.626862 140.960648,52.729481 133.562393,60.030079 
	C112.647209,80.669174 106.818550,105.872726 111.481697,134.234772 
	C111.766167,135.965012 110.507187,138.605453 109.101425,139.827072 
	C105.670242,142.808777 101.356194,142.820267 97.549904,140.673676 
	C93.755280,138.533676 91.371628,134.811920 92.104980,130.372040 
	C93.242828,123.483307 94.985329,116.688278 96.622810,109.889969 
	C98.297867,102.935646 96.689911,97.868393 91.342407,97.371979 
	C83.396858,96.634407 75.332100,97.180931 67.092209,97.180931 
	C67.092209,100.440971 66.765244,102.321968 67.145454,104.047112 
	C69.551880,114.965874 67.069069,124.812599 61.015446,133.981018 
	C58.208939,138.231567 54.225704,140.787003 49.256783,140.506104 
	C44.060913,140.212402 39.663010,135.958160 39.168591,129.948212 
	C38.485321,121.642677 38.482956,113.202309 39.090996,104.885628 
	C40.396862,87.024200 44.099247,69.571564 51.240505,53.108185 
	C53.180958,48.634693 56.697586,44.105419 60.710445,41.433437 
	C67.768295,36.733940 76.713966,43.222099 76.913231,52.861412 
	C77.035759,58.788727 76.465813,64.744530 75.957634,70.666161 
	C75.561234,75.285179 77.853294,76.849937 82.022697,77.017517 
	C92.997101,77.458633 103.212578,69.650879 107.094963,57.744610 
	C113.452843,38.246632 106.387436,23.970684 86.864143,18.619886 
	C80.633415,16.912214 73.779510,17.064909 67.211975,17.076262 
	C46.690376,17.111732 31.931738,26.986979 22.135340,44.629513 
	C15.080257,57.335152 11.053033,71.146156 8.372915,85.331512 
	C4.635134,105.114891 1.718577,125.017067 6.099961,145.072998 
	C7.749880,152.625565 10.214639,160.135208 18.755154,163.006912 
	C29.989580,166.784439 44.816456,160.310593 51.435997,149.386642 
	C52.697666,147.304565 55.909267,145.443695 58.310383,145.327774 
	C60.109493,145.240936 62.198109,147.977097 63.891346,149.715866 
	C65.789070,151.664597 66.986771,154.555725 69.183899,155.907211 
	C78.867729,161.863937 95.413193,160.028305 103.936829,152.615692 
	C107.597061,149.432556 111.525398,146.557693 115.098999,143.727264 
	C125.265457,157.669403 132.479111,162.689346 149.020493,163.846359 
	C166.302078,165.055161 182.071213,159.981140 195.983032,149.507782 
	C199.022934,147.219208 201.996750,144.842865 205.488022,142.128265 
	C205.782562,143.850861 205.899796,144.490387 206.000519,145.132523 
	C207.337067,153.653687 211.051910,160.379044 220.086868,162.524643 
	C231.263382,165.178848 242.475159,164.913574 252.698502,159.455597 
	C258.246918,156.493469 262.782867,151.649506 267.859985,147.764801 
	C268.307190,147.422623 269.382874,147.901840 270.033081,148.899841 
	C270.077606,151.932968 270.122131,154.966110 270.249908,158.673569 
	C271.485931,159.820709 272.721954,160.967834 274.481873,162.799042 
	C280.996399,162.577469 287.510925,162.355896 294.515778,161.993668 
	C294.677216,161.940216 294.838654,161.886780 295.600250,161.953949 
	C296.080994,161.674118 296.561737,161.394272 297.619202,160.857056 
	C299.192780,159.849152 300.766388,158.841232 303.020844,157.398331 
	C305.142365,155.469345 307.263916,153.540359 309.412109,151.530060 
	C309.412109,151.530060 309.547607,151.425217 310.203705,151.143768 
	C311.483307,149.800659 312.762878,148.457550 314.699585,146.792892 
	C318.169281,144.334106 321.911346,143.702698 326.235657,145.715652 
	C329.785614,149.157928 333.335602,152.600189 337.185669,156.662170 
	C341.109772,158.813095 345.033875,160.964035 349.445160,163.781082 
	C351.963196,163.798508 354.481232,163.815918 357.710419,163.720169 
	C360.920166,162.091217 364.129913,160.462265 368.013428,158.407700 
	C369.728821,156.273575 371.444214,154.139450 373.374756,152.026062 
	C373.374756,152.026062 373.645264,151.720016 374.222137,151.207474 
	C374.853912,150.151596 375.485687,149.095718 376.726898,147.751617 
	C378.449890,146.184982 380.172852,144.618347 382.004517,143.787262 
	C384.631531,148.205658 387.258545,152.624054 390.183929,157.660172 
	C395.600311,163.269104 402.328796,166.133911 410.482391,167.799301 
	C417.642944,167.865402 424.884338,168.639908 431.945374,167.834076 
	C442.952545,166.577881 453.066772,162.965485 461.607239,155.078308 
	C474.901123,142.801315 481.446136,127.005371 485.822418,110.222305 
	C488.981018,98.108917 490.585632,85.590324 492.903870,73.142258 
	C493.137512,73.142258 493.701813,72.994843 494.106140,73.185928 
	C494.471802,73.358749 494.817078,73.867645 494.908051,74.285660 
	C496.768494,82.833794 502.747467,88.262634 509.546936,92.734573 
	C517.319763,97.846703 525.844727,101.867828 533.351562,107.315689 
	C539.686584,111.913147 543.447754,119.253983 539.783020,126.688164 
	C538.490173,129.310730 535.090942,130.894913 532.653503,132.953217 
	C531.071472,130.887543 529.048828,129.011002 528.053894,126.693306 
	C527.323975,124.992966 527.606201,122.642517 528.019165,120.705879 
	C529.506592,113.730995 527.969910,110.149483 521.206848,107.819099 
	C517.723877,106.618973 513.747559,105.747391 510.156830,106.156181 
	C495.382812,107.838150 485.613007,116.344002 482.098602,130.938995 
	C479.305847,142.536987 481.952484,152.678024 491.658295,159.966827 
	C499.039825,165.510147 507.954102,167.680405 517.061829,167.887527 
	C525.484192,168.079056 534.020264,167.991409 542.338745,166.828278 
	C552.612427,165.391754 562.158875,161.734039 570.145569,154.473068 
	C579.886047,145.617722 585.025757,134.424835 586.790955,121.829140 
	C588.640320,108.632706 585.169800,96.879547 573.542236,88.922028 
	C565.450562,83.384361 556.898621,78.512123 548.885132,72.869835 
	C543.592163,69.143059 538.376221,64.763496 540.065002,57.033684 
	C540.866821,53.363499 543.137390,50.923660 547.321533,50.994179 
	C551.555237,51.065536 551.723938,54.099083 552.019531,57.168888 
	C552.237305,59.430023 551.992737,62.071636 553.080322,63.858234 
	C559.850159,74.979706 576.069092,78.522240 586.101624,72.220467 
	C593.568237,67.530487 595.355774,59.600971 597.253052,51.380241 
	C600.689026,36.492393 590.269165,22.686476 577.695740,18.810480 
	C563.342285,14.385744 549.090149,13.675317 534.586365,17.716406 
	C515.652649,22.991735 501.945465,33.853283 495.922394,53.197922 
	C495.598511,54.238037 494.300293,54.974785 492.787933,56.546841 
	C492.078583,51.730156 491.739716,48.016140 490.960907,44.396782 
	C488.248932,31.793192 482.023804,21.995855 468.940369,18.072336 
	C459.061371,15.109776 449.118530,14.500501 438.759674,15.835810 
	C424.032166,17.734264 412.027771,24.187578 403.198059,35.729176 
	C390.437744,52.408611 385.425446,72.238060 381.979279,92.543686 
	C380.530701,101.078926 379.220886,109.561691 373.238098,116.625381 
	C368.119507,122.668770 364.912079,123.660278 357.897919,120.546417 
	C353.492493,118.590675 348.721283,117.458824 343.911560,115.486786 
	C343.569489,115.643768 343.227448,115.800751 342.031403,115.991608 
	C338.295105,116.867920 334.218872,117.076538 330.897308,118.767540 
	C325.022461,121.758446 319.606781,125.651306 313.350861,128.740204 
	C313.317078,127.938232 313.072937,127.076454 313.281372,126.343338 
	C315.955322,116.937660 318.904419,107.605049 321.362610,98.144493 
	C324.392670,86.483177 327.027618,74.719200 329.971375,62.352791 
	C330.020233,61.914986 330.069092,61.477184 330.707794,60.689144 
	C330.749634,59.792625 330.791473,58.896107 330.971375,57.352791 
	C331.020264,56.914989 331.069122,56.477188 331.707825,55.689144 
	C331.749664,54.792625 331.791504,53.896111 331.971344,52.352787 
M624.049194,153.195709 
	C626.464050,158.080612 630.159851,161.452942 635.710144,161.976273 
	C641.610596,162.532608 647.667236,163.514359 653.445801,162.741226 
	C660.305298,161.823441 667.419250,158.146027 667.121338,147.083374 
	C666.958557,141.037582 667.695923,134.906418 668.620911,128.905243 
	C670.538086,116.466141 672.822876,104.083046 675.009949,91.686356 
	C677.389771,78.197350 679.830200,64.719040 682.269714,51.093475 
	C683.446899,51.093475 684.282288,50.962860 685.063599,51.113441 
	C693.961731,52.828392 702.951538,53.455540 711.671448,50.825985 
	C714.794800,49.884098 718.621094,47.383381 719.779663,44.612778 
	C722.315857,38.547596 724.068481,31.934843 724.799133,25.395765 
	C725.545654,18.714293 721.426575,15.041877 714.621094,15.029088 
	C681.793579,14.967400 648.965576,14.940046 616.138428,15.062658 
	C610.711182,15.082929 606.357788,17.488602 604.027954,22.819294 
	C600.968262,29.819763 600.385986,37.221855 601.257385,44.592869 
	C601.526794,46.871567 604.118835,50.240925 606.169739,50.681927 
	C611.805054,51.893677 617.713074,52.067257 623.521545,52.168304 
	C627.884705,52.244209 632.260803,51.571995 636.866638,51.214558 
	C634.877747,61.931431 632.842407,72.311699 631.041687,82.732521 
	C627.979187,100.456078 624.731873,118.159592 622.290833,135.971375 
	C621.562256,141.287933 623.264771,146.937668 624.049194,153.195709 
M775.103821,51.724571 
	C776.066895,44.277519 777.492981,36.850269 777.812561,29.375706 
	C777.993103,25.153078 775.616333,21.445059 771.706421,18.868216 
	C764.403809,14.055380 756.340637,14.498260 748.367310,15.385634 
	C739.445312,16.378597 734.937744,22.328432 734.073120,30.870211 
	C732.832031,43.130165 731.412903,55.420788 731.180603,67.719299 
	C730.982178,78.224335 731.886719,88.814674 733.147339,99.265495 
	C734.536499,110.782242 741.225830,113.139168 748.367065,109.586983 
	C751.477539,108.039764 754.124512,104.729301 755.974304,101.620079 
	C765.053772,86.359589 770.428467,69.599411 775.103821,51.724571 
M729.831970,162.999588 
	C748.480530,164.505325 755.395508,157.330963 759.525330,143.944519 
	C761.629761,137.123093 758.927002,126.799789 754.240356,124.096909 
	C743.804199,118.078224 723.012573,119.196144 716.428284,135.990082 
	C710.895569,150.101837 717.164612,162.298553 729.831970,162.999588 
z"/>
<path fill="#0093B1" opacity="1.000000" stroke="none" 
	d="
M389.885559,157.042450 
	C387.258545,152.624054 384.631531,148.205658 382.064362,143.140106 
	C381.468781,141.205566 380.813385,139.918182 380.157959,138.630798 
	C378.272675,140.541275 376.181610,142.305023 374.642975,144.462723 
	C374.244995,145.020813 375.579010,146.813995 376.117432,148.039856 
	C375.485687,149.095718 374.853912,150.151596 373.758728,151.193527 
	C372.677124,150.844635 372.058899,150.509689 371.440674,150.174744 
	C371.336121,150.429550 371.231537,150.684372 371.126984,150.939178 
	C371.804504,151.294556 372.482056,151.649948 373.159607,152.005325 
	C371.444214,154.139450 369.728821,156.273575 367.562195,158.225403 
	C365.588135,154.120850 363.170959,156.509369 360.987579,157.166580 
	C357.623108,158.179306 355.899414,160.157623 356.999268,163.833344 
	C354.481232,163.815918 351.963196,163.798508 349.173645,163.074371 
	C346.740662,156.755905 341.512482,156.970291 336.885559,156.042465 
	C333.335602,152.600189 329.785614,149.157928 326.067505,145.036835 
	C324.794189,139.301300 320.998383,139.997589 317.419830,140.498718 
	C313.275299,141.079071 313.398102,144.002167 314.042480,147.114441 
	C312.762878,148.457550 311.483307,149.800659 309.704498,150.953873 
	C308.693817,150.196808 308.182312,149.629639 307.670837,149.062469 
	C307.484619,149.248581 307.298370,149.434692 307.112152,149.620804 
	C307.869904,150.284317 308.627686,150.947845 309.385437,151.611374 
	C307.263916,153.540359 305.142365,155.469345 302.569946,157.226776 
	C301.018311,156.391602 299.917572,155.728012 298.816803,155.064423 
	C298.225342,157.081100 297.633911,159.097763 297.042480,161.114441 
	C296.561737,161.394272 296.080994,161.674118 295.276123,161.587555 
	C294.545929,160.394516 294.139832,159.567871 293.733734,158.741226 
	C293.437561,158.883652 293.141388,159.026093 292.845215,159.168518 
	C293.238617,160.157120 293.632050,161.145737 294.025452,162.134338 
	C287.510925,162.355896 280.996399,162.577469 274.193665,162.094070 
	C272.659210,160.259140 271.412933,159.129196 270.166656,157.999237 
	C270.122131,154.966110 270.077606,151.932968 270.362122,148.236389 
	C270.423340,145.033813 270.155548,142.494705 269.887726,139.955597 
	C272.252655,130.712997 275.028534,121.551880 276.881073,112.207695 
	C279.328217,99.864166 280.950287,87.359489 283.112640,74.956436 
	C285.636902,60.477695 288.497955,46.056999 290.952850,31.567059 
	C292.718811,21.143631 297.178589,14.246631 310.486359,14.931345 
	C316.709686,15.251551 323.026581,14.577117 328.721130,19.349215 
	C330.676086,22.250765 332.254700,24.625465 333.833344,27.000164 
	C334.211151,30.370907 334.588928,33.741657 334.601318,37.578583 
	C333.522583,38.491821 332.809296,38.938881 332.095978,39.385948 
	C332.769958,39.937099 333.443970,40.488247 334.117981,41.039391 
	C334.069122,41.477188 334.020264,41.914989 333.603638,42.698784 
	C332.522614,43.491833 331.809296,43.938892 331.095978,44.385941 
	C331.769989,44.937084 332.443970,45.488232 333.117981,46.039383 
	C333.069092,46.477184 333.020233,46.914986 332.603638,47.698776 
	C331.522583,48.491817 330.809296,48.938873 330.095978,49.385941 
	C330.769958,49.937096 331.443970,50.488243 332.117981,51.039383 
	C332.069092,51.477180 332.020203,51.914986 331.603638,52.698776 
	C330.522583,53.491825 329.809296,53.938885 329.095978,54.385944 
	C329.769989,54.937096 330.443970,55.488243 331.117981,56.039387 
	C331.069122,56.477188 331.020264,56.914989 330.603638,57.698784 
	C329.522614,58.491833 328.809296,58.938892 328.095978,59.385948 
	C328.769989,59.937092 329.443970,60.488239 330.117981,61.039383 
	C330.069092,61.477184 330.020233,61.914986 329.605774,62.697067 
	C325.199371,64.216179 326.453918,67.954590 325.662567,70.633659 
	C322.618774,80.938629 319.797638,91.309448 316.747681,101.612541 
	C314.327606,109.787888 311.628082,117.880844 309.243958,126.066101 
	C308.958466,127.046288 309.542542,128.932449 310.320770,129.395996 
	C311.192169,129.915009 312.743469,129.292450 313.998932,129.166656 
	C319.606781,125.651306 325.022461,121.758446 330.897308,118.767540 
	C334.218872,117.076538 338.295105,116.867920 342.765625,115.978935 
	C343.704620,115.963295 343.909393,115.960320 344.114197,115.957352 
	C348.721283,117.458824 353.492493,118.590675 357.897919,120.546417 
	C364.912079,123.660278 368.119507,122.668770 373.238098,116.625381 
	C379.220886,109.561691 380.530701,101.078926 381.979279,92.543686 
	C385.425446,72.238060 390.437744,52.408611 403.198059,35.729176 
	C412.027771,24.187578 424.032166,17.734264 438.759674,15.835810 
	C449.118530,14.500501 459.061371,15.109776 468.940369,18.072336 
	C482.023804,21.995855 488.248932,31.793192 490.960907,44.396782 
	C491.739716,48.016140 492.078583,51.730156 492.787933,56.546841 
	C494.300293,54.974785 495.598511,54.238037 495.922394,53.197922 
	C501.945465,33.853283 515.652649,22.991735 534.586365,17.716406 
	C549.090149,13.675317 563.342285,14.385744 577.695740,18.810480 
	C590.269165,22.686476 600.689026,36.492393 597.253052,51.380241 
	C595.355774,59.600971 593.568237,67.530487 586.101624,72.220467 
	C576.069092,78.522240 559.850159,74.979706 553.080322,63.858234 
	C551.992737,62.071636 552.237305,59.430023 552.019531,57.168888 
	C551.723938,54.099083 551.555237,51.065536 547.321533,50.994179 
	C543.137390,50.923660 540.866821,53.363499 540.065002,57.033684 
	C538.376221,64.763496 543.592163,69.143059 548.885132,72.869835 
	C556.898621,78.512123 565.450562,83.384361 573.542236,88.922028 
	C585.169800,96.879547 588.640320,108.632706 586.790955,121.829140 
	C585.025757,134.424835 579.886047,145.617722 570.145569,154.473068 
	C562.158875,161.734039 552.612427,165.391754 542.338745,166.828278 
	C534.020264,167.991409 525.484192,168.079056 517.061829,167.887527 
	C507.954102,167.680405 499.039825,165.510147 491.658295,159.966827 
	C481.952484,152.678024 479.305847,142.536987 482.098602,130.938995 
	C485.613007,116.344002 495.382812,107.838150 510.156830,106.156181 
	C513.747559,105.747391 517.723877,106.618973 521.206848,107.819099 
	C527.969910,110.149483 529.506592,113.730995 528.019165,120.705879 
	C527.606201,122.642517 527.323975,124.992966 528.053894,126.693306 
	C529.048828,129.011002 531.071472,130.887543 532.653503,132.953217 
	C535.090942,130.894913 538.490173,129.310730 539.783020,126.688164 
	C543.447754,119.253983 539.686584,111.913147 533.351562,107.315689 
	C525.844727,101.867828 517.319763,97.846703 509.546936,92.734573 
	C502.747467,88.262634 496.768494,82.833794 494.908051,74.285660 
	C494.817078,73.867645 494.471802,73.358749 494.106140,73.185928 
	C493.701813,72.994843 493.137512,73.142258 492.903870,73.142258 
	C490.585632,85.590324 488.981018,98.108917 485.822418,110.222305 
	C481.446136,127.005371 474.901123,142.801315 461.607239,155.078308 
	C453.066772,162.965485 442.952545,166.577881 431.945374,167.834076 
	C424.884338,168.639908 417.642944,167.865402 410.190002,167.084015 
	C409.379852,165.394287 409.084442,163.831802 408.309052,163.538620 
	C402.219666,161.236221 396.038483,159.176773 389.885559,157.042450 
M447.988953,55.054905 
	C446.611938,53.706772 445.111908,51.147274 443.884430,51.271889 
	C441.587616,51.505051 438.385376,52.743519 437.452576,54.544250 
	C435.076508,59.131161 433.190399,64.139091 432.099915,69.192528 
	C429.138031,82.917839 426.407898,96.708626 424.176941,110.568596 
	C423.281860,116.129257 423.606781,121.964844 424.062225,127.620056 
	C424.213379,129.497086 426.895233,132.869293 427.748779,132.670837 
	C430.266296,132.085434 433.731934,130.553711 434.529205,128.500320 
	C437.346527,121.244301 439.662933,113.716629 441.333710,106.108467 
	C444.959167,89.599045 448.739471,73.064186 447.988953,55.054905 
z"/>
<path fill="#0093B1" opacity="1.000000" stroke="none" 
	d="
M269.582825,140.098801 
	C270.155548,142.494705 270.423340,145.033813 270.428894,147.786240 
	C269.382874,147.901840 268.307190,147.422623 267.859985,147.764801 
	C262.782867,151.649506 258.246918,156.493469 252.698502,159.455597 
	C242.475159,164.913574 231.263382,165.178848 220.086868,162.524643 
	C211.051910,160.379044 207.337067,153.653687 206.000519,145.132523 
	C205.899796,144.490387 205.782562,143.850861 205.488022,142.128265 
	C201.996750,144.842865 199.022934,147.219208 195.983032,149.507782 
	C182.071213,159.981140 166.302078,165.055161 149.020493,163.846359 
	C132.479111,162.689346 125.265457,157.669403 115.098999,143.727264 
	C111.525398,146.557693 107.597061,149.432556 103.936829,152.615692 
	C95.413193,160.028305 78.867729,161.863937 69.183899,155.907211 
	C66.986771,154.555725 65.789070,151.664597 63.891346,149.715866 
	C62.198109,147.977097 60.109493,145.240936 58.310383,145.327774 
	C55.909267,145.443695 52.697666,147.304565 51.435997,149.386642 
	C44.816456,160.310593 29.989580,166.784439 18.755154,163.006912 
	C10.214639,160.135208 7.749880,152.625565 6.099961,145.072998 
	C1.718577,125.017067 4.635134,105.114891 8.372915,85.331512 
	C11.053033,71.146156 15.080257,57.335152 22.135340,44.629513 
	C31.931738,26.986979 46.690376,17.111732 67.211975,17.076262 
	C73.779510,17.064909 80.633415,16.912214 86.864143,18.619886 
	C106.387436,23.970684 113.452843,38.246632 107.094963,57.744610 
	C103.212578,69.650879 92.997101,77.458633 82.022697,77.017517 
	C77.853294,76.849937 75.561234,75.285179 75.957634,70.666161 
	C76.465813,64.744530 77.035759,58.788727 76.913231,52.861412 
	C76.713966,43.222099 67.768295,36.733940 60.710445,41.433437 
	C56.697586,44.105419 53.180958,48.634693 51.240505,53.108185 
	C44.099247,69.571564 40.396862,87.024200 39.090996,104.885628 
	C38.482956,113.202309 38.485321,121.642677 39.168591,129.948212 
	C39.663010,135.958160 44.060913,140.212402 49.256783,140.506104 
	C54.225704,140.787003 58.208939,138.231567 61.015446,133.981018 
	C67.069069,124.812599 69.551880,114.965874 67.145454,104.047112 
	C66.765244,102.321968 67.092209,100.440971 67.092209,97.180931 
	C75.332100,97.180931 83.396858,96.634407 91.342407,97.371979 
	C96.689911,97.868393 98.297867,102.935646 96.622810,109.889969 
	C94.985329,116.688278 93.242828,123.483307 92.104980,130.372040 
	C91.371628,134.811920 93.755280,138.533676 97.549904,140.673676 
	C101.356194,142.820267 105.670242,142.808777 109.101425,139.827072 
	C110.507187,138.605453 111.766167,135.965012 111.481697,134.234772 
	C106.818550,105.872726 112.647209,80.669174 133.562393,60.030079 
	C140.960648,52.729481 150.617386,49.626862 160.579269,48.376579 
	C171.773849,46.971584 183.197693,47.154537 193.255630,53.187622 
	C206.291565,61.007034 208.614426,70.735458 204.583832,86.584778 
	C200.408737,103.002335 185.253159,115.445679 168.337860,116.874702 
	C162.270828,117.387253 156.049576,116.636864 149.947647,115.996521 
	C145.015350,115.478928 141.492050,117.578957 141.009430,122.129044 
	C139.075287,140.364426 152.159332,154.803329 170.500641,153.877991 
	C181.353790,153.330429 190.571167,148.237305 199.639694,142.208313 
	C208.931122,136.031113 208.140717,126.517593 209.847427,117.896576 
	C212.737320,103.299095 214.686432,88.517113 217.152390,73.833061 
	C218.067825,68.381889 216.247452,66.025291 208.834320,64.503159 
	C209.472534,61.568115 209.788803,58.490086 210.901077,55.733212 
	C211.402588,54.490150 213.389694,53.386002 214.877533,53.086231 
	C219.660248,52.122620 222.729370,49.487312 222.932861,44.643940 
	C223.801849,23.961548 239.826553,15.279208 255.484146,15.004726 
	C257.451019,14.970248 259.419037,15.000014 262.674225,15.000014 
	C261.607849,22.618273 260.661682,29.685503 259.609894,36.736980 
	C259.201233,39.476830 258.227112,42.165630 258.097229,44.905495 
	C257.928436,48.465641 259.242920,51.355259 263.303253,52.125191 
	C265.040833,52.454670 266.735077,53.012615 268.858093,53.575150 
	C268.858093,55.320255 269.172638,57.335125 268.791687,59.208561 
	C268.032104,62.943974 266.636780,65.657509 261.644226,65.151512 
	C256.257202,64.605537 253.784302,67.656067 252.943283,72.973404 
	C251.002060,85.246361 248.630585,97.451302 246.691803,109.724617 
	C245.541046,117.009384 244.551270,124.351196 244.095245,131.704956 
	C243.662994,138.675781 246.835571,144.149506 251.750183,145.808258 
	C257.924927,147.892365 263.236053,145.906586 267.869904,141.654282 
	C268.359222,141.205276 268.809540,140.713791 269.582825,140.098801 
M175.124359,93.533218 
	C177.649002,85.819412 179.466629,78.119301 175.102966,70.397179 
	C171.414124,63.869247 165.244186,61.801353 158.891205,65.801987 
	C156.175278,67.512283 153.434769,70.458794 152.457382,73.421539 
	C149.200760,83.293327 147.021149,93.517891 143.843124,103.419281 
	C142.400970,107.912453 144.155670,111.227539 147.370041,112.406021 
	C150.907562,113.702980 155.616516,113.935196 159.143906,112.705627 
	C167.654495,109.739021 172.126740,102.551826 175.124359,93.533218 
z"/>
<path fill="#0093B1" opacity="1.000000" stroke="none" 
	d="
M623.951355,152.815231 
	C623.264771,146.937668 621.562256,141.287933 622.290833,135.971375 
	C624.731873,118.159592 627.979187,100.456078 631.041687,82.732521 
	C632.842407,72.311699 634.877747,61.931431 636.866638,51.214558 
	C632.260803,51.571995 627.884705,52.244209 623.521545,52.168304 
	C617.713074,52.067257 611.805054,51.893677 606.169739,50.681927 
	C604.118835,50.240925 601.526794,46.871567 601.257385,44.592869 
	C600.385986,37.221855 600.968262,29.819763 604.027954,22.819294 
	C606.357788,17.488602 610.711182,15.082929 616.138428,15.062658 
	C648.965576,14.940046 681.793579,14.967400 714.621094,15.029088 
	C721.426575,15.041877 725.545654,18.714293 724.799133,25.395765 
	C724.068481,31.934843 722.315857,38.547596 719.779663,44.612778 
	C718.621094,47.383381 714.794800,49.884098 711.671448,50.825985 
	C702.951538,53.455540 693.961731,52.828392 685.063599,51.113441 
	C684.282288,50.962860 683.446899,51.093475 682.269714,51.093475 
	C679.830200,64.719040 677.389771,78.197350 675.009949,91.686356 
	C672.822876,104.083046 670.538086,116.466141 668.620911,128.905243 
	C667.695923,134.906418 666.958557,141.037582 667.121338,147.083374 
	C667.419250,158.146027 660.305298,161.823441 653.445801,162.741226 
	C647.667236,163.514359 641.610596,162.532608 635.710144,161.976273 
	C630.159851,161.452942 626.464050,158.080612 623.951355,152.815231 
z"/>
<path fill="#0093B1" opacity="1.000000" stroke="none" 
	d="
M775.060425,52.142830 
	C770.428467,69.599411 765.053772,86.359589 755.974304,101.620079 
	C754.124512,104.729301 751.477539,108.039764 748.367065,109.586983 
	C741.225830,113.139168 734.536499,110.782242 733.147339,99.265495 
	C731.886719,88.814674 730.982178,78.224335 731.180603,67.719299 
	C731.412903,55.420788 732.832031,43.130165 734.073120,30.870211 
	C734.937744,22.328432 739.445312,16.378597 748.367310,15.385634 
	C756.340637,14.498260 764.403809,14.055380 771.706421,18.868216 
	C775.616333,21.445059 777.993103,25.153078 777.812561,29.375706 
	C777.492981,36.850269 776.066895,44.277519 775.060425,52.142830 
z"/>
<path fill="#0093B1" opacity="1.000000" stroke="none" 
	d="
M729.380127,162.998779 
	C717.164612,162.298553 710.895569,150.101837 716.428284,135.990082 
	C723.012573,119.196144 743.804199,118.078224 754.240356,124.096909 
	C758.927002,126.799789 761.629761,137.123093 759.525330,143.944519 
	C755.395508,157.330963 748.480530,164.505325 729.380127,162.998779 
z"/>
<path fill="#0093B1" opacity="1.000000" stroke="none" 
	d="
M313.674896,128.953430 
	C312.743469,129.292450 311.192169,129.915009 310.320770,129.395996 
	C309.542542,128.932449 308.958466,127.046288 309.243958,126.066101 
	C311.628082,117.880844 314.327606,109.787888 316.747681,101.612541 
	C319.797638,91.309448 322.618774,80.938629 325.662567,70.633659 
	C326.453918,67.954590 325.199371,64.216179 329.536743,63.020470 
	C327.027618,74.719200 324.392670,86.483177 321.362610,98.144493 
	C318.904419,107.605049 315.955322,116.937660 313.281372,126.343338 
	C313.072937,127.076454 313.317078,127.938232 313.674896,128.953430 
z"/>
<path fill="#0093B1" opacity="1.000000" stroke="none" 
	d="
M390.034729,157.351318 
	C396.038483,159.176773 402.219666,161.236221 408.309052,163.538620 
	C409.084442,163.831802 409.379852,165.394287 409.927795,166.741852 
	C402.328796,166.133911 395.600311,163.269104 390.034729,157.351318 
z"/>
<path fill="#0093B1" opacity="1.000000" stroke="none" 
	d="
M314.371033,146.953674 
	C313.398102,144.002167 313.275299,141.079071 317.419830,140.498718 
	C320.998383,139.997589 324.794189,139.301300 325.928650,144.736496 
	C321.911346,143.702698 318.169281,144.334106 314.371033,146.953674 
z"/>
<path fill="#0093B1" opacity="1.000000" stroke="none" 
	d="
M357.354858,163.776764 
	C355.899414,160.157623 357.623108,158.179306 360.987579,157.166580 
	C363.170959,156.509369 365.588135,154.120850 367.225281,158.438202 
	C364.129913,160.462265 360.920166,162.091217 357.354858,163.776764 
z"/>
<path fill="#0093B1" opacity="1.000000" stroke="none" 
	d="
M376.422180,147.895721 
	C375.579010,146.813995 374.244995,145.020813 374.642975,144.462723 
	C376.181610,142.305023 378.272675,140.541275 380.157959,138.630798 
	C380.813385,139.918182 381.468781,141.205566 382.010010,142.772324 
	C380.172852,144.618347 378.449890,146.184982 376.422180,147.895721 
z"/>
<path fill="#0093B1" opacity="1.000000" stroke="none" 
	d="
M337.035614,156.352325 
	C341.512482,156.970291 346.740662,156.755905 348.930054,162.741333 
	C345.033875,160.964035 341.109772,158.813095 337.035614,156.352325 
z"/>
<path fill="#0093B1" opacity="1.000000" stroke="none" 
	d="
M297.330841,160.985748 
	C297.633911,159.097763 298.225342,157.081100 298.816803,155.064423 
	C299.917572,155.728012 301.018311,156.391602 302.229523,157.444260 
	C300.766388,158.841232 299.192780,159.849152 297.330841,160.985748 
z"/>
<path fill="#0093B1" opacity="1.000000" stroke="none" 
	d="
M333.889740,26.642548 
	C332.254700,24.625465 330.676086,22.250765 329.048370,19.521362 
	C330.648224,21.539415 332.297180,23.912172 333.889740,26.642548 
z"/>
<path fill="#0093B1" opacity="1.000000" stroke="none" 
	d="
M270.208282,158.336395 
	C271.412933,159.129196 272.659210,160.259140 273.931732,161.752045 
	C272.721954,160.967834 271.485931,159.820709 270.208282,158.336395 
z"/>
<path fill="#0093B1" opacity="1.000000" stroke="none" 
	d="
M330.412903,60.864265 
	C329.443970,60.488239 328.769989,59.937092 328.095978,59.385948 
	C328.809296,58.938892 329.522614,58.491833 330.534607,58.022186 
	C330.791473,58.896107 330.749634,59.792625 330.412903,60.864265 
z"/>
<path fill="#0093B1" opacity="1.000000" stroke="none" 
	d="
M331.412903,55.864265 
	C330.443970,55.488243 329.769989,54.937096 329.095978,54.385944 
	C329.809296,53.938885 330.522583,53.491825 331.534607,53.022179 
	C331.791504,53.896111 331.749664,54.792625 331.412903,55.864265 
z"/>
<path fill="#0093B1" opacity="1.000000" stroke="none" 
	d="
M332.412903,50.864265 
	C331.443970,50.488243 330.769958,49.937096 330.095978,49.385941 
	C330.809296,48.938873 331.522583,48.491817 332.534637,48.022175 
	C332.791534,48.896111 332.749695,49.792629 332.412903,50.864265 
z"/>
<path fill="#0093B1" opacity="1.000000" stroke="none" 
	d="
M333.412903,45.864262 
	C332.443970,45.488232 331.769989,44.937084 331.095978,44.385941 
	C331.809296,43.938892 332.522614,43.491833 333.534607,43.022182 
	C333.791504,43.896111 333.749664,44.792625 333.412903,45.864262 
z"/>
<path fill="#0093B1" opacity="1.000000" stroke="none" 
	d="
M334.412903,40.864269 
	C333.443970,40.488247 332.769958,39.937099 332.095978,39.385948 
	C332.809296,38.938881 333.522583,38.491821 334.534637,38.022179 
	C334.791534,38.896111 334.749695,39.792629 334.412903,40.864269 
z"/>
<path fill="#0093B1" opacity="1.000000" stroke="none" 
	d="
M294.270630,162.063995 
	C293.632050,161.145737 293.238617,160.157120 292.845215,159.168518 
	C293.141388,159.026093 293.437561,158.883652 293.733734,158.741226 
	C294.139832,159.567871 294.545929,160.394516 294.976044,161.527252 
	C294.838654,161.886780 294.677216,161.940216 294.270630,162.063995 
z"/>
<path fill="#0093B1" opacity="1.000000" stroke="none" 
	d="
M309.398773,151.570709 
	C308.627686,150.947845 307.869904,150.284317 307.112152,149.620804 
	C307.298370,149.434692 307.484619,149.248581 307.670837,149.062469 
	C308.182312,149.629639 308.693817,150.196808 309.376465,151.094604 
	C309.547607,151.425217 309.412109,151.530060 309.398773,151.570709 
z"/>
<path fill="#0093B1" opacity="1.000000" stroke="none" 
	d="
M373.267181,152.015686 
	C372.482056,151.649948 371.804504,151.294556 371.126984,150.939178 
	C371.231537,150.684372 371.336121,150.429550 371.440674,150.174744 
	C372.058899,150.509689 372.677124,150.844635 373.470306,151.449799 
	C373.645264,151.720016 373.374756,152.026062 373.267181,152.015686 
z"/>
<path fill="#0093B1" opacity="1.000000" stroke="none" 
	d="
M344.012878,115.722069 
	C343.909393,115.960320 343.704620,115.963295 343.192596,115.961998 
	C343.227448,115.800751 343.569489,115.643768 344.012878,115.722069 
z"/>
<path fill="#000000" opacity="1.000000" stroke="none" 
	d="
M447.993378,55.505386 
	C448.739471,73.064186 444.959167,89.599045 441.333710,106.108467 
	C439.662933,113.716629 437.346527,121.244301 434.529205,128.500320 
	C433.731934,130.553711 430.266296,132.085434 427.748779,132.670837 
	C426.895233,132.869293 424.213379,129.497086 424.062225,127.620056 
	C423.606781,121.964844 423.281860,116.129257 424.176941,110.568596 
	C426.407898,96.708626 429.138031,82.917839 432.099915,69.192528 
	C433.190399,64.139091 435.076508,59.131161 437.452576,54.544250 
	C438.385376,52.743519 441.587616,51.505051 443.884430,51.271889 
	C445.111908,51.147274 446.611938,53.706772 447.993378,55.505386 
z"/>
<path fill="#000000" opacity="1.000000" stroke="none" 
	d="
M175.067383,93.933510 
	C172.126740,102.551826 167.654495,109.739021 159.143906,112.705627 
	C155.616516,113.935196 150.907562,113.702980 147.370041,112.406021 
	C144.155670,111.227539 142.400970,107.912453 143.843124,103.419281 
	C147.021149,93.517891 149.200760,83.293327 152.457382,73.421539 
	C153.434769,70.458794 156.175278,67.512283 158.891205,65.801987 
	C165.244186,61.801353 171.414124,63.869247 175.102966,70.397179 
	C179.466629,78.119301 177.649002,85.819412 175.067383,93.933510 
z"/>
</svg>